# xmcd
#
# Track frame offsets:
#	150
#	13952
#	25426
#	40976
#	55672
#	67828
#	84469
#	98324
#	110606
#	123840
#
# Disc length: 1836 seconds
#
# Revision: 1
# Processed by: cddbd v1.5.2PL0 Copyright (c) Steve Scherf et al.
# Submitted via: audiograbber 1.83.01
#
DISCID=75072a0a
DTITLE=Barbara Mandrell - Love Is Fair
DYEAR=1980
DGENRE=Country
TTITLE0=Love Is Fair
TTITLE1=Crackers
TTITLE2=He's Out Of My Life
TTITLE3=Not Tonight I've Got A Heartache
TTITLE4=Long Time No Love
TTITLE5=The Best Of Strangers
TTITLE6=Sometime, Somewhere, Somehow
TTITLE7=My Bonnie Lies Over And Over
TTITLE8=I'm Afraid He'll Find You (Somewhere In My Heart)
TTITLE9=Coming On Strong
EXTD=
EXTT0=
EXTT1=
EXTT2=
EXTT3=
EXTT4=
EXTT5=
EXTT6=
EXTT7=
EXTT8=
EXTT9=
PLAYORDER=
